@startuml
class ShoppingCartItem {
- String itemName
- int quantity
+ String getItemName()
+ int getQuantity()
+ String toString()
}

class ShoppingCart {
- Map<String,ShoppingCartItem> items
+ boolean addItem(String,int)
+ boolean updateQuantity(String,int)
+ ShoppingCartItem[] getItems()
- boolean isItemNameValid(String)
}
class DigitalCartItem {
- String downloadCode
}

ShoppingCart *-- ShoppingCartItem
ShoppingCartItem<|-- DigitalCartItem



@enduml